<?xml version="1.0" standalone="no"?>
<!DOCTYPE svg PUBLIC "-//W3C//DTD SVG 20010904//EN"
 "http://www.w3.org/TR/2001/REC-SVG-20010904/DTD/svg10.dtd">
<svg version="1.0" xmlns="http://www.w3.org/2000/svg"
 width="896.000000pt" height="896.000000pt" viewBox="0 0 896.000000 896.000000"
 preserveAspectRatio="xMidYMid meet">
<metadata>
Created by potrace 1.14, written by Peter Selinger 2001-2017
</metadata>
<g transform="translate(0.000000,896.000000) scale(0.100000,-0.100000)"
fill="#000000" stroke="none">
<path d="M2839 8876 c-2 -2 -26 -6 -54 -10 -102 -12 -132 -19 -231 -52 -110
-36 -273 -116 -312 -152 -7 -6 -23 -17 -34 -23 -67 -36 -243 -218 -316 -327
-68 -102 -111 -188 -149 -302 -30 -86 -60 -224 -59 -263 1 -15 -1 -27 -4 -27
-3 0 -5 -91 -5 -202 l-1 -202 -269 -1 c-171 -1 -291 -6 -327 -14 -32 -7 -70
-14 -85 -16 -16 -2 -29 -4 -30 -6 -2 -1 -7 -3 -13 -4 -5 -1 -12 -4 -15 -5 -3
-1 -8 -3 -12 -4 -109 -24 -338 -141 -428 -218 -102 -87 -129 -113 -186 -178
-75 -86 -193 -273 -205 -325 -1 -5 -17 -48 -34 -95 -17 -47 -33 -96 -35 -110
-2 -14 -7 -36 -10 -50 -3 -14 -10 -52 -15 -85 -10 -61 -8 -5005 2 -5055 3 -14
8 -32 11 -40 3 -8 8 -28 10 -45 7 -44 52 -174 88 -252 70 -148 206 -324 342
-440 128 -109 361 -226 514 -258 55 -12 71 -15 135 -25 46 -7 856 -9 2575 -7
2369 2 2512 4 2578 20 39 10 75 19 80 21 36 8 152 50 163 59 6 5 12 7 12 3 0
-3 17 4 38 17 20 13 42 25 47 25 16 2 176 108 215 143 124 109 181 173 254
284 109 165 192 387 201 542 2 28 5 55 7 60 3 4 4 92 4 195 -1 104 1 188 4
189 3 1 118 3 255 4 209 3 340 9 340 15 0 1 14 4 30 6 99 16 302 87 356 125
14 10 28 16 31 13 3 -2 11 2 18 11 7 8 18 15 24 15 7 0 21 8 32 18 10 9 39 31
64 47 74 49 272 254 289 298 2 5 11 18 19 28 34 40 120 218 146 304 15 50 30
97 33 105 3 8 7 28 9 44 2 15 8 54 14 85 11 69 8 4998 -4 5056 -4 22 -12 45
-17 51 -5 6 -7 13 -4 16 4 4 -12 68 -39 153 -2 6 -4 13 -5 17 -3 16 -105 214
-120 234 -9 12 -23 32 -31 44 -89 134 -235 271 -390 366 -63 39 -198 104 -223
108 -7 1 -17 5 -23 8 -11 8 -74 24 -164 43 -14 3 -36 9 -50 12 -25 8 -5033 17
-5041 9z m3467 -1579 c84 -23 130 -43 193 -85 88 -58 161 -137 207 -223 16
-30 33 -57 37 -60 5 -3 9 -10 8 -15 0 -5 7 -32 15 -60 23 -79 25 -104 25 -325
0 -231 -5 -282 -33 -354 -11 -27 -18 -50 -16 -50 1 -1 -15 -32 -37 -69 -96
-165 -268 -286 -445 -312 -25 -4 -497 -8 -1050 -9 -553 -2 -1023 -6 -1045 -9
-112 -17 -238 -83 -330 -173 -52 -50 -54 -54 -105 -138 -112 -185 -104 -459
18 -638 99 -144 206 -223 361 -266 72 -20 98 -21 924 -21 467 0 852 -2 856 -4
3 -2 29 -6 56 -10 61 -7 155 -38 193 -63 15 -11 40 -25 57 -33 47 -24 150
-133 194 -207 22 -37 51 -106 64 -152 23 -79 24 -97 23 -335 -2 -234 -4 -256
-26 -326 -13 -41 -37 -97 -53 -125 -30 -53 -103 -145 -124 -158 -6 -4 -18 -13
-25 -20 -67 -66 -223 -133 -332 -143 -34 -3 -437 -7 -896 -8 -459 -1 -844 -5
-855 -8 -11 -4 -33 -9 -50 -13 -16 -4 -36 -13 -44 -19 -8 -6 -17 -10 -20 -9
-6 2 -61 -24 -114 -53 -34 -19 -134 -116 -171 -167 -28 -39 -84 -151 -90 -183
-3 -11 -9 -39 -15 -64 -6 -27 -11 -185 -11 -395 l0 -351 -397 3 c-219 1 -405
3 -413 4 -20 1 -169 27 -197 34 -13 3 -31 7 -40 9 -69 16 -291 115 -321 144
-7 6 -17 12 -22 12 -5 0 -15 6 -22 12 -7 7 -31 26 -53 42 -60 44 -144 123
-208 195 -65 74 -175 256 -214 356 -36 91 -73 245 -77 319 -2 24 -5 47 -8 52
-6 13 -2 3902 5 3946 22 136 101 285 196 371 68 60 171 123 194 119 4 -1 7 3
7 10 0 6 3 9 6 6 3 -4 24 0 47 8 23 8 69 17 102 22 33 4 949 7 2035 6 1807 -1
1980 -2 2036 -17z"/>
</g>
</svg>
